<?xml version="1.0" standalone="no"?>
<!DOCTYPE svg PUBLIC "-//W3C//DTD SVG 20010904//EN"
 "http://www.w3.org/TR/2001/REC-SVG-20010904/DTD/svg10.dtd">
<svg version="1.0" xmlns="http://www.w3.org/2000/svg"
 width="500.000000pt" height="500.000000pt" viewBox="0 0 500.000000 500.000000"
 preserveAspectRatio="xMidYMid meet">
<metadata>
Created by potrace 1.14, written by Peter Selinger 2001-2017
</metadata>
<g transform="translate(0.000000,500.000000) scale(0.100000,-0.100000)"
fill="#000000" stroke="none">
<path d="M2040 4500 c-163 -14 -278 -48 -440 -131 -282 -145 -500 -403 -599
-708 -46 -139 -56 -212 -56 -386 0 -134 4 -175 24 -255 13 -52 28 -99 32 -104
5 -6 9 -16 9 -24 0 -28 62 -162 72 -155 6 3 8 1 4 -5 -7 -12 77 -157 126 -217
49 -59 174 -182 205 -202 16 -10 47 -32 69 -49 55 -41 250 -138 262 -130 6 3
12 2 14 -3 1 -6 30 -17 63 -26 149 -40 213 -44 647 -45 374 -1 412 -2 463 -20
85 -29 130 -66 191 -156 27 -39 53 -141 47 -181 -7 -48 -26 -118 -34 -129 -5
-6 -6 -13 -3 -16 7 -8 -83 -96 -125 -122 -81 -51 -67 -50 -726 -56 -676 -7
-646 -5 -802 -69 -139 -57 -298 -187 -383 -311 -87 -128 -144 -285 -156 -431
l-7 -80 999 4 c549 2 1017 6 1039 9 22 3 60 9 85 12 52 8 228 66 297 98 162
75 355 236 460 383 55 77 93 146 87 157 -4 6 -3 8 3 5 10 -6 69 110 77 151 1
9 6 24 9 32 4 8 18 60 32 115 22 86 25 122 25 263 0 227 -26 343 -119 537
-165 342 -471 580 -856 667 -80 18 -140 21 -545 27 l-455 6 -55 26 c-78 37
-143 104 -169 173 -24 64 -28 165 -9 230 24 84 101 170 187 210 45 20 63 21
666 26 644 6 623 5 758 46 9 3 15 10 12 15 -3 5 0 6 8 4 12 -5 56 12 132 52
181 96 360 321 421 531 22 73 34 224 20 234 -14 10 -1893 7 -2006 -2z"/>
</g>
</svg>
